<svg class="svg-icon" style="width: 1em; height: 1em;vertical-align: middle;fill: currentColor;overflow: hidden;" viewBox="0 0 1024 1024" version="1.1" xmlns="http://www.w3.org/2000/svg"><path d="M363.392 534.72a288 288 0 1 1 297.344 0c192.64 60.416 337.792 235.2 363.264 448.768 0.768 27.008-9.92 40.512-32 40.512-22.016 0-33.024-13.504-33.024-40.512-31.36-228.48-219.52-404.16-446.912-404.16-227.456 0-415.616 175.68-446.912 404.16 0 27.008-10.88 40.512-32.512 40.512-21.76 0-32.576-13.504-32.576-40.512 25.536-213.632 170.688-388.352 363.328-448.768zM512.064 512a224 224 0 1 0 0-448 224 224 0 0 0 0 448z" fill="#303133" /></svg>